<svg viewBox="0 0 20 20" fill="currentColor" xmlns="http://www.w3.org/2000/svg">
<path d="M18 10C18 12.1217 17.1571 14.1566 15.6569 15.6569C14.1566 17.1571 12.1217 18 10 18C7.87827 18 5.84344 17.1571 4.34315 15.6569C2.84285 14.1566 2 12.1217 2 10C2 7.87827 2.84285 5.84344 4.34315 4.34315C5.84344 2.84285 7.87827 2 10 2C12.1217 2 14.1566 2.84285 15.6569 4.34315C17.1571 5.84344 18 7.87827 18 10ZM13.354 10.854C13.4479 10.7601 13.5006 10.6328 13.5006 10.5C13.5006 10.3672 13.4479 10.2399 13.354 10.146C13.2601 10.0521 13.1328 9.99937 13 9.99937C12.8672 9.99937 12.7399 10.0521 12.646 10.146L10.5 12.293V6.5C10.5 6.36739 10.4473 6.24021 10.3536 6.14645C10.2598 6.05268 10.1326 6 10 6C9.86739 6 9.74021 6.05268 9.64645 6.14645C9.55268 6.24021 9.5 6.36739 9.5 6.5V12.293L7.354 10.146C7.26011 10.0521 7.13278 9.99937 7 9.99937C6.86722 9.99937 6.73989 10.0521 6.646 10.146C6.55211 10.2399 6.49937 10.3672 6.49937 10.5C6.49937 10.6328 6.55211 10.7601 6.646 10.854L9.646 13.854C9.69245 13.9006 9.74762 13.9375 9.80837 13.9627C9.86911 13.9879 9.93423 14.0009 10 14.0009C10.0658 14.0009 10.1309 13.9879 10.1916 13.9627C10.2524 13.9375 10.3076 13.9006 10.354 13.854L13.354 10.854Z" fill="currentColor"/>
</svg>
