<svg viewBox="0 0 20 20" fill="none" xmlns="http://www.w3.org/2000/svg">
<path d="M3 3.25C3 3.1837 3.02634 3.12011 3.07322 3.07322C3.12011 3.02634 3.1837 3 3.25 3H8.75C8.8163 3 8.87989 3.02634 8.92678 3.07322C8.97366 3.12011 9 3.1837 9 3.25V5.75C9 6.44 9.56 7 10.25 7H11.75C11.8163 7 11.8799 7.02634 11.9268 7.07322C11.9737 7.12011 12 7.1837 12 7.25V8H13V7.25C13 6.56 12.44 6 11.75 6H10.25C10.1837 6 10.1201 5.97366 10.0732 5.92678C10.0263 5.87989 10 5.8163 10 5.75V3.25C10 2.56 9.44 2 8.75 2H3.25C2.56 2 2 2.56 2 3.25V13.75C2 14.44 2.56 15 3.25 15H7V14H3.25C3.1837 14 3.12011 13.9737 3.07322 13.9268C3.02634 13.8799 3 13.8163 3 13.75V3.25ZM7.25 8.5C7.37948 8.50001 7.50676 8.53354 7.61943 8.59732C7.73211 8.66111 7.82636 8.75298 7.893 8.864C7.574 9.179 7.325 9.564 7.173 9.996C6.98185 9.97618 6.8056 9.88374 6.68062 9.73775C6.55564 9.59176 6.49147 9.40337 6.50135 9.21145C6.51123 9.01953 6.5944 8.83872 6.73371 8.70633C6.87301 8.57395 7.05782 8.50009 7.25 8.5ZM4.75 5.5C4.94891 5.5 5.13968 5.42098 5.28033 5.28033C5.42098 5.13968 5.5 4.94891 5.5 4.75C5.5 4.55109 5.42098 4.36032 5.28033 4.21967C5.13968 4.07902 4.94891 4 4.75 4C4.55109 4 4.36032 4.07902 4.21967 4.21967C4.07902 4.36032 4 4.55109 4 4.75C4 4.94891 4.07902 5.13968 4.21967 5.28033C4.36032 5.42098 4.55109 5.5 4.75 5.5ZM5.5 7C5.5 7.19891 5.42098 7.38968 5.28033 7.53033C5.13968 7.67098 4.94891 7.75 4.75 7.75C4.55109 7.75 4.36032 7.67098 4.21967 7.53033C4.07902 7.38968 4 7.19891 4 7C4 6.80109 4.07902 6.61032 4.21967 6.46967C4.36032 6.32902 4.55109 6.25 4.75 6.25C4.94891 6.25 5.13968 6.32902 5.28033 6.46967C5.42098 6.61032 5.5 6.80109 5.5 7ZM4.75 10C4.94891 10 5.13968 9.92098 5.28033 9.78033C5.42098 9.63968 5.5 9.44891 5.5 9.25C5.5 9.05109 5.42098 8.86032 5.28033 8.71967C5.13968 8.57902 4.94891 8.5 4.75 8.5C4.55109 8.5 4.36032 8.57902 4.21967 8.71967C4.07902 8.86032 4 9.05109 4 9.25C4 9.44891 4.07902 9.63968 4.21967 9.78033C4.36032 9.92098 4.55109 10 4.75 10ZM8 4.75C8 4.94891 7.92098 5.13968 7.78033 5.28033C7.63968 5.42098 7.44891 5.5 7.25 5.5C7.05109 5.5 6.86032 5.42098 6.71967 5.28033C6.57902 5.13968 6.5 4.94891 6.5 4.75C6.5 4.55109 6.57902 4.36032 6.71967 4.21967C6.86032 4.07902 7.05109 4 7.25 4C7.44891 4 7.63968 4.07902 7.78033 4.21967C7.92098 4.36032 8 4.55109 8 4.75ZM7.25 7.75C7.44891 7.75 7.63968 7.67098 7.78033 7.53033C7.92098 7.38968 8 7.19891 8 7C8 6.80109 7.92098 6.61032 7.78033 6.46967C7.63968 6.32902 7.44891 6.25 7.25 6.25C7.05109 6.25 6.86032 6.32902 6.71967 6.46967C6.57902 6.61032 6.5 6.80109 6.5 7C6.5 7.19891 6.57902 7.38968 6.71967 7.53033C6.86032 7.67098 7.05109 7.75 7.25 7.75ZM8 11C8 10.4696 8.21071 9.96086 8.58579 9.58579C8.96086 9.21071 9.46957 9 10 9H17C17.5304 9 18.0391 9.21071 18.4142 9.58579C18.7893 9.96086 19 10.4696 19 11V15C19 15.5304 18.7893 16.0391 18.4142 16.4142C18.0391 16.7893 17.5304 17 17 17H15V18H16.5C16.6326 18 16.7598 18.0527 16.8536 18.1464C16.9473 18.2402 17 18.3674 17 18.5C17 18.6326 16.9473 18.7598 16.8536 18.8536C16.7598 18.9473 16.6326 19 16.5 19H10.5C10.3674 19 10.2402 18.9473 10.1464 18.8536C10.0527 18.7598 10 18.6326 10 18.5C10 18.3674 10.0527 18.2402 10.1464 18.1464C10.2402 18.0527 10.3674 18 10.5 18H12V17H10C9.46957 17 8.96086 16.7893 8.58579 16.4142C8.21071 16.0391 8 15.5304 8 15V11ZM10 16H17C17.2652 16 17.5196 15.8946 17.7071 15.7071C17.8946 15.5196 18 15.2652 18 15V11C18 10.7348 17.8946 10.4804 17.7071 10.2929C17.5196 10.1054 17.2652 10 17 10H10C9.73478 10 9.48043 10.1054 9.29289 10.2929C9.10536 10.4804 9 10.7348 9 11V15C9 15.2652 9.10536 15.5196 9.29289 15.7071C9.48043 15.8946 9.73478 16 10 16ZM14 18V17H13V18H14Z" fill="currentColor"/>
</svg>
