<svg viewBox="0 0 20 20" fill="currentColor" xmlns="http://www.w3.org/2000/svg">
<path d="M3 10C3 10.9193 3.18106 11.8295 3.53284 12.6788C3.88463 13.5281 4.40024 14.2997 5.05025 14.9497C5.70026 15.5998 6.47194 16.1154 7.32122 16.4672C8.1705 16.8189 9.08075 17 10 17C10.9193 17 11.8295 16.8189 12.6788 16.4672C13.5281 16.1154 14.2997 15.5998 14.9497 14.9497C15.5998 14.2997 16.1154 13.5281 16.4672 12.6788C16.8189 11.8295 17 10.9193 17 10C17 8.14348 16.2625 6.36301 14.9497 5.05025C13.637 3.7375 11.8565 3 10 3C8.14348 3 6.36301 3.7375 5.05025 5.05025C3.7375 6.36301 3 8.14348 3 10ZM10 18C7.87827 18 5.84344 17.1571 4.34315 15.6569C2.84285 14.1566 2 12.1217 2 10C2 7.87827 2.84285 5.84344 4.34315 4.34315C5.84344 2.84285 7.87827 2 10 2C12.1217 2 14.1566 2.84285 15.6569 4.34315C17.1571 5.84344 18 7.87827 18 10C18 12.1217 17.1571 14.1566 15.6569 15.6569C14.1566 17.1571 12.1217 18 10 18ZM6.854 11.854C6.76011 11.9479 6.63278 12.0006 6.5 12.0006C6.36722 12.0006 6.23989 11.9479 6.146 11.854C6.05211 11.7601 5.99937 11.6328 5.99937 11.5C5.99937 11.3672 6.05211 11.2399 6.146 11.146L9.646 7.646C9.69245 7.59944 9.74762 7.56249 9.80837 7.53729C9.86911 7.51208 9.93423 7.49911 10 7.49911C10.0658 7.49911 10.1309 7.51208 10.1916 7.53729C10.2524 7.56249 10.3076 7.59944 10.354 7.646L13.854 11.146C13.9479 11.2399 14.0006 11.3672 14.0006 11.5C14.0006 11.6328 13.9479 11.7601 13.854 11.854C13.7601 11.9479 13.6328 12.0006 13.5 12.0006C13.3672 12.0006 13.2399 11.9479 13.146 11.854L10 8.707L6.854 11.854Z" fill="currentColor"/>
</svg>
