<svg viewBox="0 0 20 20" fill="currentColor" xmlns="http://www.w3.org/2000/svg">
<path d="M2.8539 2.14614C2.80741 2.09966 2.75222 2.06278 2.69148 2.03762C2.63074 2.01246 2.56564 1.99951 2.4999 1.99951C2.43416 1.99951 2.36906 2.01246 2.30832 2.03762C2.24758 2.06278 2.19239 2.09966 2.1459 2.14614C2.09941 2.19263 2.06254 2.24782 2.03738 2.30856C2.01222 2.3693 1.99927 2.4344 1.99927 2.50014C1.99927 2.56589 2.01222 2.63099 2.03738 2.69173C2.06254 2.75247 2.09941 2.80766 2.1459 2.85414L5.6459 6.35214C3.9127 7.5347 2.706 9.34367 2.2799 11.3981C2.2665 11.4625 2.26591 11.5288 2.27816 11.5934C2.29041 11.658 2.31526 11.7195 2.35129 11.7745C2.38732 11.8295 2.43382 11.8768 2.48815 11.9138C2.54247 11.9508 2.60355 11.9767 2.6679 11.9901C2.73225 12.0035 2.7986 12.0041 2.86318 11.9919C2.92775 11.9796 2.98928 11.9548 3.04426 11.9187C3.09923 11.8827 3.14657 11.8362 3.18357 11.7819C3.22057 11.7276 3.2465 11.6665 3.2599 11.6021C3.4512 10.6789 3.82446 9.80302 4.35791 9.0256C4.89136 8.24817 5.57431 7.58478 6.3669 7.07414L7.9529 8.66014C7.54167 8.95667 7.19977 9.339 6.95086 9.78068C6.70194 10.2224 6.55195 10.7128 6.51127 11.2182C6.47058 11.7236 6.54018 12.2317 6.71523 12.7075C6.89028 13.1833 7.16661 13.6154 7.52511 13.9739C7.8836 14.3324 8.3157 14.6088 8.79152 14.7838C9.26733 14.9589 9.77549 15.0285 10.2808 14.9878C10.7862 14.9471 11.2767 14.7971 11.7184 14.5482C12.16 14.2993 12.5424 13.9574 12.8389 13.5461L17.1459 17.8541C17.2398 17.948 17.3671 18.0008 17.4999 18.0008C17.6327 18.0008 17.76 17.948 17.8539 17.8541C17.9478 17.7603 18.0005 17.6329 18.0005 17.5001C18.0005 17.3674 17.9478 17.24 17.8539 17.1461L2.8539 2.14614ZM12.1189 12.8261C11.9193 13.1446 11.6505 13.4139 11.3325 13.6141C11.0144 13.8144 10.6553 13.9403 10.2819 13.9826C9.90847 14.0249 9.53032 13.9824 9.17556 13.8584C8.8208 13.7344 8.49856 13.532 8.23282 13.2662C7.96708 13.0005 7.76467 12.6782 7.64065 12.3235C7.51662 11.9687 7.47418 11.5906 7.51647 11.2171C7.55875 10.8437 7.68469 10.4846 7.8849 10.1666C8.08512 9.84854 8.35446 9.57973 8.6729 9.38014L12.1189 12.8261ZM10.1239 8.00214L13.4979 11.3761C13.4666 10.4913 13.101 9.65117 12.475 9.02508C11.8489 8.39899 11.0088 8.03346 10.1239 8.00214ZM9.9999 6.00014C9.4299 6.00014 8.8709 6.07414 8.3339 6.21314L7.5309 5.41014C8.32603 5.13974 9.16005 5.00125 9.9999 5.00014C13.6929 5.00014 16.9419 7.67314 17.7199 11.3981C17.747 11.5281 17.7213 11.6635 17.6485 11.7745C17.5757 11.8855 17.4619 11.9631 17.3319 11.9901C17.2019 12.0172 17.0666 11.9915 16.9555 11.9187C16.8445 11.846 16.767 11.7321 16.7399 11.6021C16.0579 8.32714 13.2069 6.00014 9.9999 6.00014Z" fill="currentColor"/>
</svg>
