<svg viewBox="0 0 20 20" fill="none" xmlns="http://www.w3.org/2000/svg">
<path d="M12 5.50216C12 4.91022 12.2098 4.33743 12.5922 3.8856C12.9747 3.43377 13.5049 3.13216 14.0887 3.03438C14.6725 2.9366 15.2721 3.04897 15.7809 3.35153C16.2896 3.6541 16.6747 4.12725 16.8675 4.6869C17.0604 5.24655 17.0485 5.85645 16.8341 6.4082C16.6197 6.95995 16.2167 7.41782 15.6965 7.70044C15.1764 7.98305 14.5729 8.0721 13.9934 7.95176C13.4138 7.83141 12.8956 7.50948 12.531 7.04316L7.91502 9.35116C8.02912 9.77597 8.02912 10.2234 7.91502 10.6482L12.533 12.9582C12.9157 12.471 13.4657 12.1433 14.0764 12.0385C14.687 11.9338 15.3147 12.0596 15.8379 12.3914C16.3611 12.7232 16.7424 13.2375 16.908 13.8345C17.0736 14.4315 17.0116 15.0687 16.734 15.6226C16.4564 16.1765 15.9831 16.6076 15.4057 16.8323C14.8284 17.057 14.1882 17.0594 13.6092 16.8389C13.0302 16.6184 12.5537 16.1908 12.2721 15.6389C11.9905 15.0871 11.9238 14.4504 12.085 13.8522L7.46702 11.5422C7.14602 11.9514 6.7054 12.2503 6.20652 12.3972C5.70765 12.5442 5.17535 12.532 4.68377 12.3622C4.19219 12.1924 3.76581 11.8735 3.464 11.4499C3.1622 11.0264 3 10.5192 3 9.99916C3 9.47908 3.1622 8.97195 3.464 8.5484C3.76581 8.12485 4.19219 7.80596 4.68377 7.63616C5.17535 7.46636 5.70765 7.45409 6.20652 7.60107C6.7054 7.74805 7.14602 8.04696 7.46702 8.45616L12.085 6.14916C12.0285 5.93814 12 5.72062 12 5.50216ZM14.502 4.00016C14.1038 4.00016 13.7219 4.15835 13.4403 4.43994C13.1587 4.72153 13.0005 5.10344 13.0005 5.50166C13.0005 5.89988 13.1587 6.2818 13.4403 6.56338C13.7219 6.84497 14.1038 7.00316 14.502 7.00316C14.9002 7.00316 15.2822 6.84497 15.5637 6.56338C15.8453 6.2818 16.0035 5.89988 16.0035 5.50166C16.0035 5.10344 15.8453 4.72153 15.5637 4.43994C15.2822 4.15835 14.9002 4.00016 14.502 4.00016ZM14.5 13.0002C14.1022 13.0002 13.7207 13.1582 13.4394 13.4395C13.1581 13.7208 13 14.1023 13 14.5002C13 14.898 13.1581 15.2795 13.4394 15.5608C13.7207 15.8421 14.1022 16.0002 14.5 16.0002C14.8978 16.0002 15.2794 15.8421 15.5607 15.5608C15.842 15.2795 16 14.898 16 14.5002C16 14.1023 15.842 13.7208 15.5607 13.4395C15.2794 13.1582 14.8978 13.0002 14.5 13.0002ZM4.00002 10.0002C4.00002 10.1971 4.03881 10.3922 4.1142 10.5742C4.18958 10.7562 4.30007 10.9215 4.43936 11.0608C4.57864 11.2001 4.744 11.3106 4.92599 11.386C5.10798 11.4614 5.30303 11.5002 5.50002 11.5002C5.697 11.5002 5.89205 11.4614 6.07404 11.386C6.25603 11.3106 6.42139 11.2001 6.56068 11.0608C6.69996 10.9215 6.81045 10.7562 6.88584 10.5742C6.96122 10.3922 7.00002 10.1971 7.00002 10.0002C7.00002 9.60234 6.84198 9.22081 6.56068 8.9395C6.27937 8.6582 5.89784 8.50016 5.50002 8.50016C5.10219 8.50016 4.72066 8.6582 4.43936 8.9395C4.15805 9.22081 4.00002 9.60234 4.00002 10.0002Z" fill="currentColor"/>
</svg>
